<svg width="40px" height="40px" viewBox="0 0 1.6 1.6" data-name="Layer 1" id="Layer_1" xmlns="http://www.w3.org/2000/svg"><path d="M0.829 0.955 0.195 0.551A0.15 0.15 0 0 1 0.356 0.298l0.466 0.296 0.418 -0.293a0.15 0.15 0 0 1 0.172 0.246Z" fill="#ea4435"/><path d="M1.375 1.325h-0.2v-0.9a0.15 0.15 0 0 1 0.15 -0.15 0.15 0.15 0 0 1 0.15 0.15v0.8a0.1 0.1 0 0 1 -0.1 0.1" fill="#00ac47"/><path d="M1.473 0.403c0 -0.003 0 -0.006 -0.001 -0.009 -0.001 -0.005 -0.003 -0.009 -0.004 -0.013a0.15 0.15 0 0 0 -0.005 -0.015c-0.001 -0.002 -0.003 -0.004 -0.004 -0.007a0.15 0.15 0 0 0 -0.011 -0.019c-0.002 -0.003 -0.004 -0.005 -0.007 -0.008a0.15 0.15 0 0 0 -0.012 -0.014c-0.003 -0.003 -0.007 -0.006 -0.011 -0.009a0.15 0.15 0 0 0 -0.012 -0.009c-0.004 -0.003 -0.008 -0.005 -0.013 -0.007 -0.004 -0.002 -0.009 -0.005 -0.013 -0.007 -0.004 -0.002 -0.009 -0.003 -0.014 -0.004s-0.009 -0.003 -0.014 -0.004a0.15 0.15 0 0 0 -0.018 -0.002c-0.004 0 -0.008 -0.001 -0.011 -0.001a0.15 0.15 0 0 0 -0.021 0.002c-0.003 0 -0.006 0 -0.009 0.001a1.65 1.65 0 0 0 -0.028 0.009c-0.003 0.001 -0.005 0.003 -0.007 0.004A0.145 0.145 0 0 0 1.175 0.425v0.288l0.236 -0.165a0.145 0.145 0 0 0 0.062 -0.145Z" fill="#ffba00"/><path d="M0.275 0.275a0.15 0.15 0 0 1 0.15 0.15v0.9h-0.2a0.1 0.1 0 0 1 -0.1 -0.1v-0.8a0.15 0.15 0 0 1 0.15 -0.15" fill="#4285f4"/><path d="M0.127 0.403c0 -0.003 0 -0.006 0.001 -0.009 0.001 -0.005 0.003 -0.009 0.004 -0.013a0.15 0.15 0 0 1 0.005 -0.015c0.001 -0.002 0.003 -0.004 0.004 -0.007a0.15 0.15 0 0 1 0.011 -0.019c0.002 -0.003 0.004 -0.005 0.007 -0.008a0.15 0.15 0 0 1 0.012 -0.014c0.003 -0.003 0.007 -0.006 0.011 -0.009a0.15 0.15 0 0 1 0.012 -0.009c0.004 -0.003 0.008 -0.005 0.013 -0.007a0.15 0.15 0 0 1 0.013 -0.007c0.004 -0.002 0.009 -0.003 0.014 -0.004s0.009 -0.003 0.014 -0.004a0.15 0.15 0 0 1 0.018 -0.002c0.004 0 0.008 -0.001 0.011 -0.001a0.15 0.15 0 0 1 0.021 0.002c0.003 0 0.006 0 0.009 0.001a0.15 0.15 0 0 1 0.014 0.004 0.15 0.15 0 0 1 0.014 0.004c0.003 0.001 0.005 0.003 0.007 0.004a0.15 0.15 0 0 1 0.019 0.011A0.15 0.15 0 0 1 0.425 0.425v0.288l-0.236 -0.165a0.145 0.145 0 0 1 -0.062 -0.145" fill="#c52528"/></svg>